<svg width="340" height="56" viewBox="0 0 340 56" fill="none" xmlns="http://www.w3.org/2000/svg"><path fill-rule="evenodd" clip-rule="evenodd" d="M220.784 29.9673C220.487 29.4473 220.041 29.0016 219.484 28.6674C218.927 28.3702 218.444 28.2217 217.702 28.2217L202.326 28.296C201.026 28.296 200.209 28.5188 199.094 29.1502C197.98 29.7816 197.423 30.7472 196.792 31.8614L187.915 47.3489L186.578 49.8373C186.244 50.3944 186.058 50.9886 186.058 51.62C186.058 52.2514 186.207 52.8827 186.541 53.4027C186.838 53.9598 187.284 54.4055 187.841 54.7026C188.361 54.9997 188.992 55.1854 189.624 55.1483H204.257C205.52 55.1483 206.745 54.814 207.859 54.1827C208.974 53.5513 209.865 52.6228 210.496 51.5457L219.559 35.5383L220.747 33.5327C221.081 33.0128 221.23 32.3814 221.23 31.75C221.267 31.1186 221.081 30.5244 220.784 29.9673ZM208.231 35.984C208.055 36.2956 207.879 36.6023 207.704 36.9058L207.704 36.9062C207.401 37.4346 207.103 37.9535 206.82 38.4724L206.818 38.4742C206.299 39.365 205.779 40.2557 205.26 41.1836C204.814 41.9264 204.368 42.7063 203.923 43.4863C203.879 43.5619 203.833 43.6406 203.785 43.7216L203.785 43.722L203.785 43.7225L203.784 43.7233C203.669 43.9203 203.545 44.1304 203.44 44.3405C203.086 44.9302 202.747 45.52 202.414 46.1002C202.222 46.4335 202.032 46.7637 201.843 47.0889L201.508 47.646L201.479 47.6831C201.345 47.8516 201.236 47.9878 201.063 48.0917C200.84 48.2031 200.617 48.2774 200.394 48.2774H198.723C198.612 48.2774 198.537 48.2402 198.426 48.1659C198.24 48.0917 198.092 47.8688 198.166 47.646C198.203 47.5346 198.24 47.4603 198.314 47.3489C198.723 46.6432 199.132 45.9283 199.54 45.2133C199.949 44.4984 200.357 43.7834 200.766 43.0777C201.1 42.502 201.434 41.917 201.769 41.332L201.769 41.3315L201.771 41.327C202.105 40.7438 202.438 40.1606 202.771 39.5866L203.068 39.0295C203.217 38.8066 203.366 38.5838 203.477 38.3238C203.695 37.9971 203.893 37.6504 204.085 37.313L204.085 37.3125C204.155 37.1898 204.225 37.0684 204.294 36.9496C204.366 36.8343 204.433 36.7189 204.498 36.6057L204.498 36.6054L204.498 36.605C204.601 36.4269 204.701 36.2542 204.814 36.0954C204.851 36.0211 204.888 35.9561 204.925 35.8911C204.963 35.8261 205 35.7611 205.037 35.6869C205.111 35.5383 205.26 35.3897 205.445 35.3155C205.668 35.1669 205.891 35.1298 206.114 35.1298H207.785C207.873 35.1298 207.938 35.153 208.017 35.1811C208.037 35.1885 208.059 35.1963 208.082 35.204C208.132 35.2288 208.181 35.2866 208.231 35.3443C208.256 35.3732 208.28 35.4021 208.305 35.4269C208.417 35.6497 208.342 35.7983 208.231 35.984ZM145.773 30.9329C146.553 29.5959 148.002 28.7416 149.562 28.7416H156.841C164.566 28.7416 167.835 33.0128 165.383 38.0267L159.515 49.0573C157.547 52.5485 153.87 54.7026 149.859 54.7026H138.16L136.674 54.6655C134.706 54.6655 133.517 52.5856 134.483 50.8772L145.773 30.9329ZM154.761 38.5838L154.91 38.2867C155.987 36.2068 154.501 35.724 153.758 35.6126C153.461 35.5754 153.164 35.6869 153.016 35.9468H152.979C152.96 36.0025 152.932 36.0583 152.904 36.114C152.876 36.1697 152.849 36.2254 152.83 36.2811C152.737 36.4108 152.654 36.5497 152.571 36.6887L152.571 36.6888L152.57 36.6889L152.57 36.6892L152.57 36.6896L152.57 36.6901L152.57 36.6904L152.569 36.6906C152.486 36.8295 152.403 36.9685 152.31 37.0982L151.53 38.4352C151.462 38.5932 151.381 38.7375 151.302 38.8764L151.302 38.8766L151.302 38.8768L151.302 38.877L151.302 38.8772L151.302 38.8776L151.301 38.878C151.251 38.9671 151.202 39.054 151.159 39.1409L150.862 39.6608C150.393 40.442 149.942 41.2232 149.485 42.0172L149.483 42.0202L149.482 42.0224C149.287 42.3592 149.092 42.6983 148.893 43.0406L146.553 47.1632C146.497 47.2199 146.461 47.2983 146.431 47.3653C146.422 47.386 146.413 47.4056 146.405 47.4231C146.33 47.646 146.479 47.8688 146.665 47.9431C146.739 48.0174 146.85 48.0545 146.962 48.0545H148.559C148.782 48.0545 148.967 47.9802 149.153 47.906C149.339 47.7945 149.45 47.6831 149.562 47.5346C149.71 47.3117 149.822 47.126 149.933 46.9032C150.453 46.049 150.973 45.1576 151.493 44.2662C151.567 44.1177 151.651 43.9784 151.734 43.8391C151.818 43.6998 151.901 43.5606 151.976 43.412C152.18 43.0406 152.394 42.6692 152.607 42.2978C152.821 41.9264 153.034 41.555 153.238 41.1836C153.498 40.7565 153.749 40.3201 154 39.8837C154.251 39.4473 154.501 39.0109 154.761 38.5838ZM194.231 29.0016C194.566 29.1873 194.788 29.4473 194.974 29.7444C195.16 30.0415 195.234 30.3758 195.234 30.7101C195.234 31.0815 195.16 31.4157 194.974 31.7129L184.426 50.6915C183.684 52.0285 182.569 53.1799 181.232 53.9598C179.895 54.7398 178.372 55.1483 176.85 55.1483H164.705C163.925 55.1483 163.182 54.9626 162.514 54.5912C161.845 54.2198 161.251 53.6627 160.88 52.9942C160.471 52.3256 160.285 51.5828 160.285 50.8029C160.285 50.0601 160.471 49.2802 160.842 48.6116L171.167 30.2644C171.39 29.8187 171.762 29.4473 172.207 29.1502C172.653 28.8902 173.173 28.7416 173.693 28.7416H179.264C179.635 28.7416 179.97 28.8531 180.267 29.0388C180.564 29.1873 180.824 29.4473 180.972 29.7444C181.158 30.0415 181.269 30.3758 181.269 30.7472C181.269 31.0815 181.158 31.4157 181.009 31.75L173.173 45.5661C173.099 45.6776 173.061 45.789 173.061 45.9375C173.061 46.0861 173.099 46.1975 173.173 46.3089C173.247 46.4204 173.321 46.5318 173.433 46.5689C173.544 46.6432 173.693 46.6803 173.804 46.6803H174.881C175.141 46.6803 175.438 46.6061 175.698 46.4575C175.921 46.3089 176.144 46.1232 176.293 45.8633L184.983 30.2272C185.243 29.7816 185.615 29.4102 186.061 29.1502C186.506 28.8902 186.989 28.7416 187.509 28.7416H193.266C193.6 28.7416 193.934 28.8531 194.231 29.0016ZM226.944 46.6803H235.263C236.712 46.6803 237.64 48.2774 236.934 49.5773L234.743 53.477C234.743 53.477 233.963 54.7026 232.218 54.7026H232.143H231.141H231.029H213.09C211.902 54.7026 211.159 53.4027 211.753 52.3999L215.319 46.1975L215.32 46.1962C215.691 45.5653 216.062 44.9343 216.433 44.2662C216.57 44.0744 216.687 43.8624 216.798 43.66L216.798 43.6599C216.838 43.588 216.877 43.5173 216.916 43.4491C217.101 43.1151 217.287 42.8182 217.473 42.5212L217.473 42.5206L218.104 41.4064L219.219 39.5123C219.33 39.3266 219.404 39.178 219.441 39.0295C219.511 38.9362 219.567 38.8429 219.617 38.7589L219.617 38.7586L219.617 38.758C219.646 38.7085 219.674 38.6622 219.701 38.6209C219.924 38.231 220.147 37.8318 220.37 37.4326L220.37 37.4324C220.593 37.0332 220.816 36.6339 221.038 36.244L224.232 30.6729C224.901 29.4844 226.164 28.7416 227.538 28.7416H233.518C234.632 28.7416 235.337 29.9673 234.78 30.9329L233.109 33.867L231.995 35.7983L226.349 45.7147C226.127 46.1604 226.424 46.6803 226.944 46.6803ZM257.82 28.7045H251.803C250.466 28.7045 249.203 29.4473 248.498 30.6358L245.341 36.2068C244.858 37.0239 244.412 37.8038 243.967 38.5838L243.744 38.9923C243.726 39.0284 243.708 39.0666 243.689 39.106C243.631 39.2289 243.568 39.3627 243.484 39.4752L242.37 41.4064L241.738 42.4835C241.645 42.6506 241.553 42.8085 241.46 42.9663C241.367 43.1242 241.274 43.282 241.181 43.4491C241.142 43.517 241.104 43.5875 241.064 43.6591L241.064 43.6596L241.064 43.66C240.952 43.8624 240.835 44.0744 240.698 44.2662C240.513 44.5819 240.327 44.9069 240.141 45.2319C239.956 45.5568 239.77 45.8818 239.584 46.1975L235.462 53.2913C235.127 53.9227 235.573 54.7026 236.279 54.7026H241.478L244.227 54.6655C245.044 54.6655 245.749 54.2198 246.158 53.5141L247.532 51.2114L256.297 35.7983L257.411 33.8298L259.083 30.8958C259.64 29.9301 258.934 28.7045 257.82 28.7045ZM278.348 28.7788H284.328C285.405 28.7788 286.111 29.9673 285.591 30.9329L283.919 33.9041L282.805 35.8354L274.077 51.2114L272.703 53.5141C272.294 54.2198 271.552 54.6283 270.772 54.6655L268.023 54.7026H266.501H262.861C262.267 54.7026 261.784 54.1455 261.932 53.5513L263.678 45.8633C263.715 45.6776 263.492 45.6033 263.418 45.7518L260.298 51.2114L258.961 53.5141C258.553 54.2198 257.81 54.6283 256.993 54.6655L254.281 54.7026H249.082C248.376 54.7026 247.931 53.9227 248.265 53.2913L252.387 46.1975L253.502 44.3034C253.65 44.0063 253.799 43.7463 253.984 43.4491C254.077 43.3006 254.161 43.1427 254.244 42.9849C254.328 42.8271 254.411 42.6692 254.504 42.5206L255.136 41.4436L256.287 39.5123C256.306 39.4566 256.333 39.4009 256.361 39.3452C256.389 39.2894 256.417 39.2337 256.436 39.178L256.696 38.6581C256.991 38.1812 257.272 37.6905 257.556 37.1944L257.559 37.1895C257.739 36.8757 257.92 36.5598 258.107 36.244L261.264 30.6729C261.969 29.4844 263.195 28.7788 264.569 28.7788H270.549C271.552 28.7788 272.22 29.7444 271.923 30.6358V30.6729L270.14 38.6581C270.103 38.8438 270.363 38.918 270.437 38.7695L271.849 36.244L275.043 30.6729C275.711 29.4844 276.974 28.7788 278.348 28.7788ZM310.767 29.9673C310.47 29.4102 310.024 28.9645 309.467 28.6674C308.947 28.3702 308.464 28.2217 307.721 28.2217L292.419 28.296C291.12 28.296 290.302 28.5188 289.225 29.1502C288.124 29.7741 287.568 30.7243 286.945 31.7859L286.945 31.786L286.945 31.7861L286.945 31.7863L286.923 31.8243L278.083 47.2374L276.746 49.7258C276.412 50.2829 276.264 50.8772 276.226 51.5086C276.226 52.1399 276.375 52.7713 276.709 53.2913C277.006 53.8484 277.452 54.2941 278.009 54.5912C278.529 54.8883 279.16 55.0369 279.755 55.0369H294.351C295.614 55.0369 296.839 54.7026 297.953 54.0712C299.03 53.4399 299.513 53.1056 300.479 51.4714L302.856 47.3117C303.079 46.9032 303.487 46.6803 303.933 46.6803C304.453 46.6803 304.973 46.5318 305.419 46.2718C305.901 45.9747 306.273 45.6033 306.496 45.1205L307.536 43.3006C307.684 43.0035 307.758 42.6692 307.758 42.3721C307.758 42.0378 307.684 41.7036 307.498 41.4064C307.35 41.1465 307.09 40.8865 306.83 40.7379C306.533 40.5894 306.198 40.4779 305.864 40.4779H294.982C294.054 40.4779 293.199 40.9979 292.754 41.8521L290.822 45.3062C290.377 46.049 290.414 46.6803 291.157 46.6803C291.177 46.6803 291.2 46.6799 291.225 46.6793L291.259 46.6784C291.569 46.6703 292.131 46.6555 291.9 47.0517L291.602 47.5346C291.491 47.7203 291.38 47.8688 291.194 47.9802C290.971 48.0917 290.748 48.1659 290.525 48.1659H288.854C288.766 48.1659 288.701 48.1427 288.622 48.1146L288.594 48.1043C288.582 48.1001 288.57 48.0959 288.557 48.0917C288.371 47.9802 288.223 47.7945 288.297 47.5346L295.094 35.724C295.168 35.5383 295.279 35.4269 295.428 35.3155C295.651 35.1669 295.948 35.0926 296.208 35.0926H297.619C297.731 35.0926 297.842 35.0926 297.916 35.1669C298.028 35.204 298.102 35.2783 298.139 35.3897C298.25 35.5754 298.176 35.724 298.065 35.9468C298.049 35.9707 298.04 35.9844 298.031 35.9984C298.02 36.0171 298.01 36.0364 297.986 36.0817L297.985 36.0829C297.943 36.1623 297.859 36.3204 297.656 36.6896C297.248 37.4324 297.73 38.3238 298.585 38.3238H306.421C307.461 38.3238 308.093 37.9153 308.501 37.2839L309.578 35.5012L310.73 33.4956C311.064 32.9756 311.25 32.3442 311.25 31.7129C311.25 31.1186 311.101 30.4872 310.767 29.9673ZM337.252 28.6674C337.809 29.0016 338.255 29.4473 338.552 29.9673C338.849 30.5244 339.035 31.1186 338.998 31.75C338.998 32.3814 338.849 33.0128 338.515 33.5327L337.326 35.5383L328.264 51.5457C327.633 52.6228 326.741 53.5513 325.627 54.1827C324.513 54.814 323.287 55.1483 322.025 55.1483H307.391C306.76 55.1854 306.129 54.9997 305.609 54.7026C305.051 54.4055 304.606 53.9598 304.309 53.4027C303.974 52.8827 303.826 52.2514 303.826 51.62C303.826 50.9886 304.012 50.3944 304.346 49.8373L305.683 47.3489L314.559 31.8614C315.191 30.7472 315.748 29.7816 316.862 29.1502C317.976 28.5188 318.793 28.296 320.093 28.296L335.469 28.2217C336.212 28.2217 336.695 28.3702 337.252 28.6674ZM325.472 36.9062C325.646 36.6025 325.822 36.2957 325.999 35.984C326.11 35.7983 326.184 35.6497 326.073 35.4269C326.048 35.4021 326.023 35.3732 325.999 35.3443C325.949 35.2866 325.9 35.2288 325.85 35.204C325.827 35.1963 325.805 35.1885 325.784 35.1811C325.706 35.153 325.641 35.1298 325.553 35.1298H323.882C323.659 35.1298 323.436 35.1669 323.213 35.3155C323.027 35.3897 322.879 35.5383 322.804 35.6869C322.767 35.7611 322.73 35.8261 322.693 35.8911C322.656 35.9561 322.619 36.0211 322.582 36.0954C322.468 36.2545 322.368 36.4275 322.265 36.6058C322.2 36.719 322.134 36.8343 322.062 36.9496C321.994 37.0654 321.927 37.1837 321.858 37.3032L321.857 37.3055L321.853 37.3125C321.66 37.65 321.463 37.9969 321.245 38.3238C321.133 38.5837 320.985 38.8064 320.836 39.0291L320.836 39.0295L320.539 39.5866C320.205 40.1622 319.87 40.7472 319.536 41.3321C319.202 41.9171 318.868 42.5021 318.533 43.0777C318.125 43.7835 317.716 44.4985 317.308 45.2136L317.307 45.2149C316.899 45.9293 316.49 46.6437 316.082 47.3489C316.008 47.4603 315.971 47.5346 315.934 47.646C315.859 47.8688 316.008 48.0917 316.194 48.1659C316.305 48.2402 316.379 48.2774 316.491 48.2774H318.162C318.385 48.2774 318.608 48.2031 318.83 48.0917C319.003 47.9879 319.112 47.8519 319.246 47.6837L319.246 47.6834L319.247 47.6831L319.276 47.646L319.61 47.0889C319.8 46.7636 319.99 46.4334 320.182 46.1L320.182 46.0996C320.515 45.5196 320.854 44.93 321.207 44.3405C321.313 44.1301 321.436 43.9197 321.553 43.7224L321.553 43.7222C321.6 43.641 321.647 43.5621 321.69 43.4863C322.136 42.7063 322.582 41.9264 323.027 41.1836C323.547 40.2551 324.067 39.3637 324.587 38.4724C324.87 37.9545 325.167 37.4367 325.47 36.9094L325.472 36.9062ZM34.1318 30.413C33.7604 29.7816 33.2404 29.2245 32.5719 28.8531C31.9405 28.4817 31.1977 28.296 30.4549 28.296H17.1588C15.7474 28.296 14.3361 28.6674 13.1476 29.4102C11.922 30.1159 10.9192 31.1558 10.2135 32.3814L8.02228 36.2069C7.50231 37.1725 7.31661 38.2867 7.53945 39.3266C7.76229 40.4037 8.35654 41.3693 9.21076 42.0379L14.7818 46.2718C15.1903 46.5318 15.4874 46.9404 15.5989 47.3861C15.7103 47.8689 15.636 48.3517 15.376 48.7602C15.1903 48.9831 14.9675 49.1688 14.7075 49.2802C14.4475 49.3916 14.1504 49.4288 13.8533 49.3916C12.6648 49.3916 12.0334 48.8345 12.5162 47.9432C12.6648 47.646 12.7762 47.3118 12.7391 47.0147C12.7391 46.6804 12.6648 46.3461 12.4791 46.0861C12.2934 45.8262 12.0706 45.6033 11.7734 45.4548C11.4763 45.3062 11.142 45.2319 10.8449 45.2319H4.7168C4.19684 45.2691 3.67688 45.4176 3.23119 45.6776C2.78551 45.9376 2.41411 46.3461 2.15413 46.7918L0.557102 49.5773C0.222841 50.1344 0.0371402 50.7658 0 51.4343C0 52.0657 0.148561 52.6971 0.482822 53.2913C0.779944 53.8484 1.26277 54.3313 1.81987 54.6655C2.37697 54.9626 3.04549 55.1483 3.67688 55.1483H17.9758C19.35 55.1483 20.7242 54.8141 21.9498 54.1456C23.1755 53.477 24.1782 52.4743 24.8839 51.2858L26.6295 48.2774C27.298 47.1261 27.5209 45.7147 27.2609 44.3777C26.9638 43.0407 26.221 41.8522 25.1439 41.0722L20.2043 37.3954C19.9814 37.2839 19.8328 37.1725 19.6843 36.9868C19.5729 36.8382 19.4614 36.6154 19.3872 36.4297C19.35 36.2069 19.3129 35.984 19.35 35.7983C19.3872 35.5755 19.4614 35.3526 19.5729 35.1669C19.7957 34.8698 20.0928 34.5727 20.4642 34.387C20.7985 34.2013 21.1699 34.0899 21.5784 34.0527C21.8013 34.0156 22.0241 34.0527 22.247 34.1642C22.4698 34.2756 22.6184 34.4241 22.7669 34.6098C22.8783 34.8327 22.9155 35.0555 22.9155 35.2784C22.8783 35.5383 22.8041 35.7612 22.6555 35.9469C22.5069 36.1697 22.4327 36.4297 22.4698 36.6897C22.4698 36.9497 22.5441 37.2097 22.6926 37.4696C22.8041 37.6925 23.0269 37.8782 23.2497 37.9896C23.5097 38.101 23.7697 38.1753 24.0297 38.1382H30.4921C31.0492 38.1382 31.5691 37.9896 32.0148 37.7296C32.4976 37.4696 32.869 37.0611 33.129 36.6154L34.2061 34.647C34.5775 33.9785 34.7632 33.2728 34.7261 32.53C34.7261 31.7872 34.5032 31.0444 34.1318 30.413ZM61.691 29.7445C61.5053 29.4474 61.2824 29.1874 60.9482 29.0017C60.651 28.8531 60.3168 28.7417 59.9825 28.7417H54.2258C53.7058 28.7417 53.223 28.8903 52.7773 29.1502C52.3316 29.4102 51.9602 29.7816 51.7003 30.2273L43.0095 45.8633C42.8609 46.1233 42.6381 46.309 42.4152 46.4576C42.1552 46.6061 41.8581 46.6804 41.5981 46.6804H40.5211C40.4097 46.6804 40.2611 46.6433 40.1497 46.569C40.0383 46.5318 39.964 46.4204 39.8897 46.309C39.8154 46.1976 39.7783 46.0861 39.7783 45.9376C39.7783 45.789 39.8154 45.6776 39.8897 45.5662L47.7263 31.75C47.8748 31.4158 47.9863 31.0815 47.9863 30.7473C47.9863 30.3759 47.8748 30.0416 47.6891 29.7445C47.5406 29.4474 47.2806 29.1874 46.9835 29.0388C46.6863 28.8531 46.3521 28.7417 45.9807 28.7417H40.4097C39.8897 28.7417 39.3697 28.8903 38.924 29.1502C38.4784 29.4474 38.107 29.8188 37.8841 30.2644L27.5592 48.6117C27.1878 49.2802 27.0021 50.0601 27.0021 50.8029C27.0021 51.5829 27.1878 52.3257 27.5963 52.9942C27.9677 53.6627 28.5619 54.2198 29.2305 54.5912C29.899 54.9626 30.6418 55.1483 31.4217 55.1483H43.5666C45.0893 55.1483 46.6121 54.7398 47.9491 53.9599C49.2862 53.1799 50.4004 52.0286 51.1432 50.6915L61.691 31.7129C61.8767 31.4158 61.951 31.0815 61.951 30.7101C61.951 30.3759 61.8767 30.0416 61.691 29.7445ZM82.8957 29.5216C83.7128 29.9673 84.3813 30.6358 84.8641 31.4158C85.3098 32.2329 85.5698 33.1242 85.5698 34.0527C85.5698 34.9812 85.3469 35.8726 84.9013 36.6897L81.1872 43.3749C80.4444 44.6748 79.3674 45.789 78.0675 46.5318C76.7676 47.3118 75.282 47.7203 73.7963 47.7203H65.217L65.0684 47.9432C63.9542 49.9859 62.2829 51.6943 60.2773 52.8828C58.2718 54.0713 56.0062 54.6655 53.6664 54.6655C53.3693 54.6655 53.0721 54.5912 52.8121 54.4427C52.5522 54.3313 52.3665 54.1084 52.2179 53.8484C52.0693 53.5885 51.9951 53.3285 51.9579 53.0314C51.9579 52.7342 52.0322 52.4371 52.1808 52.1771L64.3999 30.3016C64.6599 29.8559 64.9941 29.4845 65.4398 29.2245C65.8855 28.9645 66.3683 28.816 66.8883 28.816H80.2587C81.1872 28.816 82.1157 29.076 82.8957 29.5216ZM72.6821 40.218L74.3906 37.3582C74.4649 37.1725 74.5391 36.9868 74.5391 36.8011C74.5391 36.6154 74.502 36.4297 74.3906 36.2811C74.3163 36.0954 74.1677 35.984 74.0192 35.8726C73.8335 35.7983 73.6478 35.724 73.4621 35.724H72.125C72.0707 35.724 72.0362 35.7439 71.9925 35.7692C71.9765 35.7784 71.9592 35.7884 71.9393 35.7983C71.9146 35.7983 71.8898 35.8313 71.8651 35.8644C71.8527 35.8809 71.8403 35.8974 71.8279 35.9097L69.191 40.3294C69.1538 40.3666 69.1538 40.4408 69.1538 40.478C69.1538 40.5523 69.1538 40.6265 69.191 40.6637L69.3024 40.7751C69.3395 40.8122 69.4138 40.8122 69.4509 40.8122H71.5679C71.7908 40.8122 72.0136 40.7751 72.1993 40.6637C72.4222 40.5523 72.5707 40.4037 72.6821 40.218ZM110.853 29.893C110.705 29.5959 110.445 29.3359 110.148 29.1502C109.85 28.9645 109.516 28.8531 109.182 28.816H91.8746C91.4289 28.816 90.9461 28.9645 90.5376 29.1874C90.129 29.4474 89.7948 29.7816 89.5348 30.1902L78.0213 50.6544C77.7985 51.0629 77.7242 51.5458 77.7242 52.0286C77.7242 52.5114 77.8728 52.9571 78.0956 53.3656C78.3556 53.7742 78.6898 54.1084 79.0984 54.3684C79.5069 54.5912 79.9897 54.7027 80.4726 54.7398H96.3314C96.8514 54.7398 97.3342 54.5912 97.7428 54.3684C98.1884 54.1084 98.5227 53.737 98.7827 53.3285L100.9 49.6516C101.085 49.3545 101.16 48.9831 101.16 48.6117C101.123 48.2774 101.011 47.906 100.825 47.6089C100.64 47.3118 100.343 47.0518 100.045 46.9032C99.7112 46.7547 99.3398 46.6804 99.0055 46.7175H89.3862L90.4261 44.8977H97.6313C98.1142 44.8977 98.6341 44.7491 99.0798 44.4891C99.5255 44.2291 99.8969 43.8206 100.157 43.3749L101.16 41.5922C101.308 41.2951 101.382 40.9608 101.382 40.6637C101.382 40.3294 101.308 39.9952 101.123 39.7352C100.974 39.4381 100.714 39.2152 100.454 39.0667C100.157 38.881 99.8597 38.8067 99.5255 38.8067H93.843L94.883 36.9868H105.988C106.619 36.9868 107.251 36.8011 107.771 36.504C108.328 36.1697 108.773 35.724 109.07 35.2041L110.928 31.8986C111.076 31.5643 111.15 31.2301 111.15 30.8958C111.15 30.5244 111.039 30.1902 110.853 29.893ZM131.607 29.4474C132.424 29.9302 133.092 30.5987 133.575 31.4158C134.021 32.2329 134.281 33.1614 134.281 34.0899C134.281 35.0184 134.021 35.9469 133.575 36.764L130.753 41.6665C129.973 42.9664 128.858 44.0434 127.521 44.7862C126.184 45.529 124.699 45.9376 123.139 45.9376H122.285C122.619 47.5346 123.139 49.3916 123.622 50.9886C123.733 51.3972 123.77 51.8429 123.696 52.2514C123.622 52.6971 123.473 53.1056 123.213 53.4399C122.99 53.8113 122.656 54.1084 122.285 54.3313C121.913 54.517 121.505 54.6655 121.059 54.7027H117.753C117.122 54.7027 116.491 54.5541 115.971 54.1827C115.451 53.8113 115.079 53.2913 114.857 52.6971C114.448 50.9515 114.262 49.1316 114.262 47.3489V47.2004L110.92 53.2171C110.66 53.6999 110.325 54.0713 109.88 54.3313C109.471 54.5912 108.951 54.7027 108.468 54.7027H104.272C103.789 54.7027 103.306 54.5912 102.86 54.3313C102.415 54.0713 102.043 53.737 101.82 53.2913C101.56 52.8457 101.412 52.3628 101.412 51.88C101.412 51.3601 101.523 50.8772 101.783 50.4315L113 30.2273C113.26 29.7816 113.631 29.4102 114.077 29.1502C114.522 28.8903 115.005 28.7417 115.525 28.7417H128.933C129.861 28.7417 130.79 29.0017 131.607 29.4474ZM121.579 40.218L123.324 37.3211C123.436 37.1725 123.473 36.9868 123.473 36.8011C123.473 36.6154 123.436 36.4297 123.324 36.244C123.25 36.0954 123.102 35.9469 122.953 35.8726C122.767 35.7612 122.582 35.724 122.396 35.724H120.985C120.91 35.724 120.873 35.724 120.799 35.7612L120.688 35.8726L118.088 40.3666C118.051 40.4037 118.051 40.4408 118.051 40.5151C118.051 40.5523 118.051 40.6265 118.088 40.6637C118.125 40.738 118.162 40.7751 118.199 40.8122C118.215 40.8122 118.236 40.8186 118.262 40.8261C118.298 40.8366 118.341 40.8494 118.385 40.8494H120.502C120.725 40.8494 120.948 40.7751 121.133 40.6637C121.319 40.5523 121.467 40.4037 121.579 40.218Z" fill="url(#paint0_linear_102_9194)"/><path d="M76.4853 2.83599C76.1463 2.28823 75.6767 1.81872 75.1029 1.50571C74.5551 1.1927 73.903 1.01012 73.2509 1.01012H63.8607C63.4956 1.01012 63.1565 1.11445 62.8435 1.29704C62.5305 1.47963 62.2957 1.74047 62.1131 2.05347L53.5315 17.4169C53.4272 17.5995 53.375 17.8082 53.375 18.0168C53.4011 18.2255 53.4533 18.4081 53.5576 18.5907C53.6619 18.7733 53.7923 18.9298 53.9749 19.008C54.1575 19.1124 54.3662 19.1645 54.5749 19.1645C56.2181 19.1645 57.8093 18.7472 59.2178 17.9125C60.6263 17.0778 61.8001 15.8779 62.5826 14.4433L62.687 14.2868H68.7123C69.7557 14.2868 70.799 13.9999 71.712 13.4521C72.6249 12.9305 73.3814 12.1479 73.903 11.235L76.5114 6.53991C76.8244 5.96606 76.9809 5.34005 76.9809 4.68795C76.9809 4.03585 76.7983 3.40984 76.4853 2.83599ZM69.1297 7.00942L67.9298 9.01788C67.8516 9.1483 67.7472 9.25263 67.5907 9.33088C67.4603 9.40913 67.3038 9.43522 67.1473 9.43522H65.6605C65.6344 9.43522 65.5823 9.43522 65.5562 9.40913C65.5301 9.38305 65.504 9.35697 65.4779 9.33088C65.4518 9.3048 65.4518 9.25263 65.4518 9.20046C65.4518 9.17438 65.4518 9.12221 65.4779 9.09613L67.3299 5.99214C67.356 5.96606 67.3821 5.91389 67.4081 5.91389C67.4603 5.88781 67.4864 5.86172 67.5386 5.86172H68.4776C68.608 5.86172 68.7384 5.91389 68.8688 5.96606C68.9732 6.04431 69.0775 6.12256 69.1297 6.25298C69.2079 6.35732 69.234 6.48774 69.234 6.61816C69.234 6.74858 69.1818 6.879 69.1297 7.00942Z" fill="white"/><path d="M97.8157 1.81872C97.607 1.45354 97.294 1.14054 96.9027 0.905781C96.5115 0.697109 96.1724 0.592773 95.6507 0.592773L84.852 0.644942C83.939 0.644942 83.3652 0.801445 82.5827 1.24487C81.8001 1.6883 81.4089 2.36648 80.9655 3.149L74.7314 14.026L73.7924 15.7736C73.5576 16.1649 73.4272 16.5822 73.4272 17.0256C73.4272 17.4691 73.5315 17.9125 73.7663 18.2777C73.975 18.6689 74.288 18.9819 74.6792 19.1906C75.0444 19.3993 75.4878 19.5297 75.9313 19.5036H86.2083C87.0952 19.5036 87.9559 19.2689 88.7385 18.8254C89.521 18.382 90.147 17.7299 90.5904 16.9735L96.9549 5.7313L97.7896 4.32277C98.0243 3.9576 98.1287 3.51417 98.1287 3.07075C98.1548 2.62732 98.0243 2.20998 97.8157 1.81872ZM88.9993 6.04431C88.6602 6.64424 88.3211 7.21809 88.0081 7.79193C87.6429 8.41795 87.2778 9.04396 86.9126 9.69606C86.5996 10.2177 86.2866 10.7655 85.9736 11.3133C85.8692 11.4958 85.7388 11.7045 85.6345 11.9132C85.2432 12.5653 84.878 13.2174 84.5129 13.8434C84.4346 13.9738 84.3564 14.1042 84.2781 14.2347C84.1738 14.3651 84.0955 14.4694 83.9651 14.5477C83.8086 14.6259 83.6521 14.6781 83.4956 14.6781H82.3218C82.2436 14.6781 82.1914 14.652 82.1131 14.5998C81.9827 14.5477 81.8784 14.3912 81.9306 14.2347C81.9566 14.1564 81.9827 14.1042 82.0349 14.026C82.6087 13.0348 83.1826 12.0175 83.7564 11.0263C84.2259 10.2177 84.6955 9.38305 85.165 8.57445L85.3736 8.18319C85.478 8.02669 85.5823 7.87019 85.6606 7.6876C85.8692 7.37459 86.0518 7.0355 86.2344 6.72249C86.3648 6.51382 86.4692 6.30515 86.5996 6.12256C86.6517 6.01823 86.7039 5.93998 86.7561 5.83564C86.8083 5.7313 86.9126 5.62697 87.043 5.5748C87.1995 5.47047 87.356 5.44438 87.5125 5.44438H88.6863C88.7645 5.44438 88.8167 5.47047 88.895 5.49655C88.9471 5.52263 88.9993 5.60088 89.0515 5.65305C89.1297 5.80956 89.0776 5.91389 88.9993 6.04431Z" fill="white"/><path d="M120.296 0.905781H117.74H116.357C115.549 0.905781 114.897 1.29704 114.479 2.02739L113.879 3.04466L111.036 7.76585C110.958 7.87018 110.854 7.92235 110.749 7.92235C110.541 7.92235 110.384 7.6876 110.462 7.47893L111.271 5.36613C111.401 4.89662 111.14 4.50536 110.697 4.50536H109.289C108.819 4.50536 108.376 4.71403 108.089 5.10529L106.158 7.71368C106.106 7.79193 106.028 7.81802 105.95 7.81802C105.715 7.8441 105.559 7.58326 105.663 7.40067L107.567 3.85326L108.193 2.60123C108.584 1.8448 108.036 0.957948 107.202 0.957948H103.889C103.002 0.957948 102.194 1.45354 101.776 2.23606L100.942 3.85326L94.5772 15.6171L94.1338 16.3996C93.4295 17.6517 94.3424 19.1906 95.751 19.1906L98.4115 19.2167C100.472 19.2167 101.385 18.1733 101.985 17.5995L104.776 14.7563C104.959 14.5477 105.298 14.7042 105.245 14.9911L104.932 17.7299C104.75 19.1645 106.237 19.1384 107.045 19.1384H108.219H109.915C111.167 19.1384 112.314 18.4863 112.94 17.4169L115.027 13.8956C115.366 13.3217 115.679 12.7479 116.018 12.2001L116.201 11.8349C116.227 11.7567 116.279 11.6784 116.331 11.6002L117.114 10.2438L117.557 9.48739C117.688 9.25263 117.818 9.04396 117.948 8.83529C118.053 8.62662 118.157 8.41795 118.287 8.23536C118.548 7.79193 118.809 7.32242 119.07 6.879L121.418 2.83599C121.913 1.97522 121.287 0.905781 120.296 0.905781Z" fill="white"/><path d="M139.851 1.76655C139.746 1.55788 139.564 1.37529 139.355 1.24487C139.146 1.11445 138.912 1.0362 138.677 1.01012H126.522C126.209 1.01012 125.87 1.11445 125.583 1.27096C125.296 1.45354 125.061 1.6883 124.879 1.97522L116.793 16.3475C116.636 16.6344 116.584 16.9735 116.584 17.3126C116.584 17.6517 116.688 17.9647 116.845 18.2516C117.027 18.5385 117.262 18.7733 117.549 18.9558C117.836 19.1124 118.175 19.1906 118.514 19.2167H129.652C130.017 19.2167 130.356 19.1124 130.643 18.9558C130.956 18.7733 131.191 18.5124 131.373 18.2255L132.86 15.6432C132.991 15.4345 133.043 15.1737 133.043 14.9128C133.017 14.6781 132.938 14.4172 132.808 14.2086C132.678 13.9999 132.469 13.8173 132.26 13.713C132.026 13.6086 131.765 13.5565 131.53 13.5826H124.774L125.505 12.3044H130.565C130.904 12.3044 131.269 12.2001 131.582 12.0175C131.895 11.8349 132.156 11.548 132.339 11.235L133.043 9.98298C133.147 9.77431 133.199 9.53956 133.199 9.33088C133.199 9.09613 133.147 8.86137 133.017 8.67879C132.912 8.47012 132.73 8.31361 132.547 8.20928C132.339 8.07886 132.13 8.02669 131.895 8.02669H127.904L128.635 6.74858H136.434C136.877 6.74858 137.321 6.61816 137.686 6.40949C138.077 6.17473 138.39 5.86172 138.599 5.49655L139.903 3.17508C140.007 2.94033 140.059 2.70557 140.059 2.47082C140.059 2.20998 139.981 1.97522 139.851 1.76655Z" fill="white"/><path d="M157.634 2.83599C157.295 2.26214 156.826 1.79263 156.252 1.45354C155.678 1.14054 155.026 0.957948 154.374 0.957948H144.958C144.592 0.957948 144.253 1.06228 143.94 1.24487C143.627 1.42746 143.367 1.6883 143.184 2.0013L135.307 16.191C135.124 16.504 135.046 16.8431 135.046 17.2082C135.046 17.5473 135.15 17.8864 135.333 18.1994C135.489 18.5124 135.75 18.7472 136.063 18.9298C136.376 19.1124 136.715 19.1906 137.054 19.1906H140.002C140.341 19.1906 140.706 19.1124 140.993 18.9298C141.306 18.7472 141.541 18.4863 141.723 18.1472L144.071 13.9217V14.026C144.071 15.278 144.201 16.5561 144.488 17.7821C144.645 18.1994 144.905 18.5646 145.271 18.8254C145.636 19.0863 146.079 19.1906 146.523 19.1906H148.844C149.157 19.1645 149.444 19.0602 149.705 18.9298C149.966 18.7733 150.201 18.5646 150.357 18.3037C150.54 18.069 150.644 17.7821 150.696 17.4691C150.748 17.1821 150.722 16.8691 150.644 16.5822C150.305 15.4606 149.94 14.1564 149.705 13.0348H150.305C151.4 13.0348 152.444 12.7479 153.383 12.2262C154.322 11.7045 155.104 10.9481 155.652 10.0351L157.634 6.59207C157.947 6.01823 158.13 5.36613 158.13 4.71403C158.13 4.06193 157.947 3.40984 157.634 2.83599ZM150.435 6.98333L149.209 9.01788C149.131 9.1483 149.027 9.25263 148.896 9.33088C148.766 9.40913 148.609 9.4613 148.453 9.4613H146.966C146.914 9.4613 146.862 9.43522 146.836 9.43522C146.81 9.40913 146.784 9.38305 146.757 9.33088C146.731 9.3048 146.731 9.25263 146.731 9.22655C146.731 9.17438 146.731 9.1483 146.757 9.12221L148.583 5.96606C148.609 5.93998 148.635 5.91389 148.662 5.88781C148.714 5.86172 148.74 5.86172 148.792 5.86172H149.783C149.914 5.86172 150.044 5.88781 150.174 5.96606C150.279 6.01823 150.383 6.12256 150.435 6.2269C150.514 6.35732 150.54 6.48774 150.54 6.61816C150.54 6.74858 150.514 6.879 150.435 6.98333Z" fill="white"/><path d="M186.475 1.66221C186.345 1.45354 186.188 1.27096 185.953 1.14054C185.745 1.0362 185.51 0.957948 185.275 0.957948H181.232C180.867 0.957948 180.528 1.06228 180.215 1.24487C179.902 1.42746 179.641 1.6883 179.458 2.0013L173.355 12.9826C173.251 13.1652 173.094 13.2956 172.938 13.4C172.755 13.5043 172.546 13.5565 172.364 13.5565H171.607C171.529 13.5565 171.425 13.5304 171.346 13.4782C171.268 13.4521 171.216 13.3739 171.164 13.2956C171.112 13.2174 171.086 13.1391 171.086 13.0348C171.086 12.9305 171.112 12.8522 171.164 12.774L176.668 3.07075C176.772 2.83599 176.85 2.60123 176.85 2.36648C176.85 2.10564 176.772 1.87089 176.641 1.66221C176.537 1.45354 176.355 1.27096 176.146 1.16662C175.937 1.0362 175.702 0.957948 175.442 0.957948H171.529C171.164 0.957948 170.799 1.06228 170.486 1.24487C170.173 1.45354 169.912 1.71438 169.755 2.02739L162.504 14.9128C162.243 15.3824 162.113 15.9301 162.113 16.4518C162.113 16.9996 162.243 17.5212 162.53 17.9907C162.791 18.4603 163.208 18.8515 163.678 19.1124C164.147 19.3732 164.669 19.5036 165.217 19.5036H173.746C174.816 19.5036 175.885 19.2167 176.824 18.6689C177.763 18.1212 178.546 17.3126 179.067 16.3735L186.475 3.04466C186.605 2.83599 186.658 2.60123 186.658 2.3404C186.658 2.10564 186.605 1.87089 186.475 1.66221Z" fill="white"/><path d="M204.576 2.83599C204.237 2.28823 203.767 1.81872 203.193 1.50571C202.645 1.1927 201.993 1.01012 201.341 1.01012H191.951C191.586 1.01012 191.247 1.11445 190.934 1.29704C190.621 1.47963 190.386 1.74047 190.203 2.05347L181.622 17.4169C181.518 17.5995 181.465 17.8082 181.465 18.0168C181.491 18.2255 181.544 18.4081 181.648 18.5907C181.752 18.7733 181.883 18.9298 182.065 19.008C182.248 19.1124 182.457 19.1645 182.665 19.1645C184.308 19.1645 185.9 18.7472 187.308 17.9125C188.717 17.0778 189.89 15.8779 190.673 14.4433L190.777 14.2868H196.803C197.846 14.2868 198.889 13.9999 199.802 13.4521C200.715 12.9305 201.472 12.1479 201.993 11.235L204.602 6.53991C204.915 5.96606 205.071 5.34005 205.071 4.68795C205.071 4.03585 204.889 3.40984 204.576 2.83599ZM197.22 7.00942L196.02 9.01788C195.942 9.1483 195.838 9.25263 195.681 9.33088C195.551 9.40913 195.394 9.43522 195.238 9.43522H193.751C193.725 9.43522 193.673 9.43522 193.647 9.40913C193.62 9.38305 193.594 9.35697 193.568 9.33088C193.542 9.3048 193.542 9.25263 193.542 9.20046C193.542 9.17438 193.542 9.12221 193.568 9.09613L195.42 5.99214C195.446 5.96606 195.472 5.91389 195.498 5.91389C195.551 5.88781 195.577 5.86172 195.629 5.86172H196.568C196.698 5.86172 196.829 5.91389 196.959 5.96606C197.064 6.04431 197.168 6.12256 197.22 6.25298C197.298 6.35732 197.324 6.48774 197.324 6.61816C197.324 6.74858 197.272 6.879 197.22 7.00942Z" fill="white"/><path d="M235.008 0.905781H232.452H231.069C230.261 0.905781 229.609 1.29704 229.191 2.02739L228.591 3.04466L225.748 7.76585C225.67 7.87018 225.566 7.92235 225.461 7.92235C225.253 7.92235 225.096 7.6876 225.174 7.47893L225.983 5.36613C226.113 4.89662 225.853 4.50536 225.409 4.50536H224.001C223.531 4.50536 223.088 4.71403 222.801 5.10529L220.871 7.71368C220.818 7.79193 220.74 7.81802 220.662 7.81802C220.427 7.8441 220.271 7.58326 220.375 7.40067L222.279 3.85326L222.905 2.60123C223.296 1.8448 222.749 0.957948 221.914 0.957948H218.601C217.714 0.957948 216.906 1.45354 216.488 2.23606L215.654 3.85326L209.289 15.6171L208.846 16.3996C208.142 17.6517 209.055 19.1906 210.463 19.1906L213.124 19.2167C215.184 19.2167 216.097 18.1733 216.697 17.5995L219.488 14.7563C219.671 14.5477 220.01 14.7042 219.958 14.9911L219.645 17.7299C219.462 19.1645 220.949 19.1384 221.757 19.1384H222.931H224.627C225.879 19.1384 227.026 18.4863 227.652 17.4169L229.739 13.8956C230.078 13.3217 230.391 12.7479 230.73 12.2001L230.913 11.8349C230.939 11.7567 230.991 11.6784 231.043 11.6002L231.826 10.2438L232.269 9.48739C232.4 9.25263 232.53 9.04396 232.661 8.83529C232.765 8.62662 232.869 8.41795 233 8.23536C233.26 7.79193 233.521 7.32242 233.782 6.879L236.13 2.83599C236.625 1.97522 235.999 0.905781 235.008 0.905781Z" fill="white"/><path d="M246.164 0.931865H241.938C240.999 0.931865 240.112 1.45354 239.617 2.28823L237.4 6.20081C237.061 6.77466 236.747 7.32242 236.434 7.87018L236.278 8.15711C236.226 8.26144 236.174 8.39186 236.095 8.4962L235.313 9.85256L234.869 10.609C234.739 10.8438 234.609 11.0524 234.478 11.2872C234.374 11.4698 234.27 11.6784 234.139 11.861C233.878 12.3045 233.617 12.774 233.357 13.2174L230.461 18.1994C230.227 18.6428 230.54 19.1906 231.035 19.1906H234.687L236.617 19.1645C237.191 19.1645 237.687 18.8515 237.973 18.3559L238.939 16.7387L245.094 5.91389L245.877 4.53144L247.051 2.47082C247.442 1.79263 246.946 0.931865 246.164 0.931865Z" fill="white"/><path d="M266.137 1.6883C266.007 1.47963 265.85 1.32312 265.641 1.1927C265.433 1.06228 265.198 0.984033 264.963 0.957948H251.582C251.556 0.957948 251.53 0.957948 251.504 0.957948H250.8C250.774 0.957948 250.774 0.957948 250.747 0.957948C249.521 0.984033 248.974 1.81872 248.974 1.81872L247.122 5.15746C246.757 5.78347 247.226 6.56599 247.93 6.56599H252.339C252.078 7.0355 251.791 7.50501 251.53 8.0006L251.373 8.26144C251.321 8.39186 251.269 8.4962 251.191 8.60053L250.408 9.9569L249.965 10.7133C249.835 10.922 249.73 11.1307 249.6 11.3654C249.495 11.548 249.365 11.7567 249.261 11.9393C249 12.3827 248.739 12.8261 248.478 13.2696L245.609 18.2255C245.374 18.6689 245.687 19.2167 246.183 19.2167H249.808L251.713 19.1906C252.26 19.1645 252.782 18.8776 253.069 18.382L254.008 16.7648L259.799 6.56599H262.85C263.242 6.56599 263.659 6.43557 263.998 6.25298C264.363 6.01823 264.676 5.70522 264.885 5.34005L266.189 3.07075C266.293 2.86207 266.32 2.62732 266.32 2.39256C266.32 2.13172 266.241 1.89697 266.137 1.6883Z" fill="white"/><path d="M285.195 0.931865H280.995C280.03 0.931865 279.143 1.45354 278.674 2.28823L276.43 6.20081L275.413 8.0006C275.257 8.31361 274.917 8.4962 274.578 8.4962H273.613C273.326 8.52228 273.144 8.18319 273.3 7.94844L274.448 5.91389L275.23 4.53144L276.404 2.47082C276.795 1.79263 276.3 0.931865 275.517 0.931865H271.292C270.327 0.931865 269.466 1.45354 268.97 2.28823L266.753 6.20081C266.414 6.77466 266.101 7.32242 265.788 7.87018C265.736 7.97452 265.684 8.07886 265.632 8.15711C265.579 8.28753 265.527 8.39186 265.449 8.4962L264.666 9.85256L264.223 10.609L263.832 11.2872C263.727 11.4698 263.623 11.6784 263.493 11.861C263.232 12.3045 262.971 12.774 262.71 13.2174L259.815 18.2255C259.58 18.6428 259.893 19.1906 260.389 19.1906H264.04L265.971 19.1645C266.544 19.1645 267.04 18.8515 267.327 18.382L268.292 16.7387L270.848 12.2262C271.005 11.9654 271.266 11.8089 271.579 11.8089H272.544C272.857 11.8089 273.039 12.1219 272.883 12.3827C272.726 12.6696 272.57 12.9305 272.387 13.2174L269.518 18.2255C269.257 18.6428 269.57 19.1906 270.066 19.1906H273.744L275.648 19.1645C276.222 19.1645 276.743 18.8515 277.03 18.382L277.969 16.7387L284.125 5.91389L284.908 4.53144L286.081 2.47082C286.473 1.79263 285.977 0.931865 285.195 0.931865Z" fill="white"/><defs><linearGradient id="paint0_linear_102_9194" x1="-4.57112" y1="22.6813" x2="179.52" y2="213.497" gradientUnits="userSpaceOnUse"><stop stop-color="#26FF55"/><stop offset="0.523569" stop-color="#268AFF"/><stop offset="1" stop-color="#FC55FF"/></linearGradient></defs></svg>